<svg width="284" height="284" viewBox="0 0 284 284" fill="none" xmlns="http://www.w3.org/2000/svg">
<path d="M83.7051 41.1055C104.756 41.1055 121.821 58.1701 121.821 79.2207C121.821 100.271 104.756 117.337 83.7051 117.337C62.6544 117.337 45.5898 100.271 45.5898 79.2207C45.59 58.1702 62.6545 41.1056 83.7051 41.1055Z" fill="#BEDBFF" stroke="#2B7FFF" stroke-width="13.4526"/>
<path d="M81.7358 168.688C82.5846 167.125 84.8265 167.125 85.6753 168.688L95.4692 186.716C96.9165 189.38 99.1047 191.568 101.769 193.016L119.797 202.81C121.36 203.658 121.36 205.9 119.797 206.749L101.769 216.543C99.1047 217.99 96.9165 220.178 95.4692 222.843L85.6753 240.871C84.8265 242.434 82.5846 242.434 81.7358 240.871L71.9419 222.843C70.4946 220.178 68.3064 217.99 65.6421 216.543L47.6138 206.749C46.0513 205.9 46.0513 203.658 47.6138 202.81L65.6421 193.016C68.3064 191.568 70.4946 189.38 71.9419 186.716L81.7358 168.688Z" fill="white" stroke="#2B7FFF" stroke-width="13.4526"/>
<path d="M173.389 41.1055H227.2C233.391 41.1055 238.41 46.1242 238.411 52.3154V106.126C238.411 112.317 233.391 117.337 227.2 117.337H173.389C167.198 117.337 162.179 112.317 162.179 106.126V52.3154C162.179 46.1243 167.198 41.1056 173.389 41.1055Z" fill="#BEDBFF" stroke="#2B7FFF" stroke-width="13.4526"/>
<path d="M173.389 166.664H227.2C233.391 166.664 238.41 171.682 238.411 177.874C238.411 213.784 209.299 242.895 173.389 242.895C167.198 242.895 162.179 237.875 162.179 231.684V177.874C162.179 171.682 167.198 166.664 173.389 166.664Z" fill="#BEDBFF" stroke="#2B7FFF" stroke-width="13.4526"/>
</svg>
